<svg xmlns="http://www.w3.org/2000/svg" width="640" height="360" viewBox="0 0 640 360" role="img" aria-label="Teacher at whiteboard">
  <defs>
    <linearGradient id="g" x1="0" y1="0" x2="1" y2="1">
      <stop offset="0" stop-color="#e0f2fe"/>
      <stop offset="1" stop-color="#ffffff"/>
    </linearGradient>
  </defs>
  <rect width="640" height="360" fill="url(#g)"/>
  <rect x="40" y="40" width="380" height="220" rx="8" fill="#f1f5f9" stroke="#cbd5e1"/>
  <rect x="60" y="70" width="340" height="12" rx="6" fill="#94a3b8"/>
  <rect x="60" y="100" width="280" height="12" rx="6" fill="#94a3b8"/>
  <rect x="60" y="130" width="320" height="12" rx="6" fill="#94a3b8"/>
  <circle cx="500" cy="180" r="46" fill="#2563eb"/>
  <rect x="475" y="220" width="50" height="80" rx="8" fill="#0f172a"/>
  <rect x="520" y="220" width="16" height="60" rx="6" fill="#0f172a"/>
  <rect x="458" y="220" width="16" height="60" rx="6" fill="#0f172a"/>
  <rect x="512" y="170" width="12" height="8" rx="2" fill="#0f172a"/>
  <rect x="428" y="140" width="14" height="6" rx="2" fill="#0f172a"/>
  <rect x="430" y="138" width="80" height="6" rx="3" fill="#0f172a"/>
  <text x="40" y="320" font-family="Poppins, Arial, sans-serif" font-size="18" fill="#334155">Teacher & Whiteboard (placeholder)</text>
</svg>

